<?xml version="1.0" encoding="UTF-8" standalone="no"?>
<!-- Generator: Adobe Illustrator 19.0.0, SVG Export Plug-In . SVG Version: 6.00 Build 0)  -->

<svg
   version="1.1"
   id="Layer_1"
   x="0px"
   y="0px"
   viewBox="0 0 512.001 512.001"
   style="enable-background:new 0 0 512.001 512.001;"
   xml:space="preserve"
   sodipodi:docname="library_public.svg"
   inkscape:version="1.1.2 (0a00cf5339, 2022-02-04, custom)"
   xmlns:inkscape="http://www.inkscape.org/namespaces/inkscape"
   xmlns:sodipodi="http://sodipodi.sourceforge.net/DTD/sodipodi-0.dtd"
   xmlns="http://www.w3.org/2000/svg"
   xmlns:svg="http://www.w3.org/2000/svg"><defs
   id="defs1746" /><sodipodi:namedview
   id="namedview1744"
   pagecolor="#ffffff"
   bordercolor="#666666"
   borderopacity="1.0"
   inkscape:pageshadow="2"
   inkscape:pageopacity="0.0"
   inkscape:pagecheckerboard="0"
   showgrid="false"
   inkscape:zoom="1.4042942"
   inkscape:cx="256.00049"
   inkscape:cy="255.64444"
   inkscape:window-width="1920"
   inkscape:window-height="1027"
   inkscape:window-x="-8"
   inkscape:window-y="-8"
   inkscape:window-maximized="1"
   inkscape:current-layer="g1711" />
<g
   id="g1711">
	<g
   id="g1709">
		<g
   id="g1707">
			<path
   d="M503.467,397.763h-55.893l19.831-5.316c4.548-1.22,7.245-5.896,6.033-10.445l-13.252-49.451v-0.009l-8.832-32.973h-0.009     L385.093,52.3c-1.203-4.557-5.888-7.262-10.445-6.033l-82.432,22.084c-2.176,0.58-4.045,2.014-5.18,3.977     c-1.135,1.954-1.434,4.284-0.853,6.468l13.252,49.451v0.008l5.086,18.987c-6.903-3.473-14.677-5.478-22.921-5.478H34.134     c-3.072,0-5.905,1.655-7.424,4.326c-1.519,2.679-1.476,5.956,0.111,8.593l9.839,16.401c8.09,13.491,8.09,30.259,0,43.75     l-7.356,12.262H8.534c-3.072,0-5.905,1.655-7.424,4.326c-1.519,2.679-1.476,5.956,0.111,8.593l9.839,16.401     c8.09,13.491,8.09,30.259,0,43.75l-9.839,16.401c-1.587,2.637-1.63,5.922-0.111,8.593c1.519,2.68,4.352,4.335,7.424,4.335h20.77     l7.356,12.254c8.09,13.491,8.09,30.259,0,43.75l-7.356,12.262H8.534c-4.71,0-8.533,3.823-8.533,8.533v51.2     c0,4.71,3.823,8.533,8.533,8.533h494.933c4.719,0,8.533-3.823,8.533-8.533v-51.2     C512.001,401.586,508.186,397.763,503.467,397.763z M395.273,288.102c-0.742,0.196-1.485,0.29-2.219,0.29     c-3.772,0-7.219-2.517-8.235-6.323l-26.505-98.918c-1.212-4.548,1.485-9.233,6.042-10.445c4.548-1.237,9.233,1.476,10.445,6.033     l26.505,98.91C402.518,282.205,399.822,286.881,395.273,288.102z M384.069,114.414l4.42,16.486l-65.946,17.672l-4.412-16.495     L384.069,114.414z M370.817,64.955l8.841,32.973L313.712,115.6l-8.832-32.973L370.817,64.955z M51.295,162.303l-2.082-3.473     h232.388c15.556,0,28.57,10.522,32.666,24.772l0.836,3.132c0.384,2.022,0.631,4.096,0.631,6.229     c0,18.816-15.309,34.133-34.133,34.133h-25.6H49.212l2.082-3.473C62.644,204.705,62.644,181.213,51.295,162.303z      M264.534,278.297c0,4.71-3.814,8.533-8.533,8.533H68.267c-4.71,0-8.533-3.823-8.533-8.533s3.823-8.533,8.533-8.533h187.733     C260.72,269.763,264.534,273.586,264.534,278.297z M281.601,397.763H49.212l2.082-3.473c11.349-18.918,11.349-42.411,0-61.321     l-2.082-3.473h206.788h25.6c18.825,0,34.133,15.309,34.133,34.133C315.734,382.446,300.425,397.763,281.601,397.763z      M319.659,397.763c8.141-9.071,13.141-21.018,13.141-34.133c0-24.354-17.101-44.749-39.919-49.911     c8.849-9.207,14.319-21.675,14.319-35.422s-5.47-26.223-14.319-35.43c13.073-2.953,24.26-10.897,31.437-21.743l47.334,176.64     H319.659z M371.132,329.906l65.946-17.673l4.412,16.486l-65.937,17.673L371.132,329.906z M379.964,362.871l65.946-17.664     l8.832,32.964l-65.937,17.673L379.964,362.871z"
   id="path1701" />
			<path
   d="M281.603,355.095H93.87c-4.719,0-8.533,3.823-8.533,8.533c0,4.71,3.814,8.533,8.533,8.533h187.733     c4.719,0,8.533-3.823,8.533-8.533C290.137,358.918,286.322,355.095,281.603,355.095z"
   id="path1703" />
			<path
   d="M93.87,201.495h187.733c4.719,0,8.533-3.823,8.533-8.533c0-4.71-3.814-8.533-8.533-8.533H93.87     c-4.719,0-8.533,3.823-8.533,8.533C85.337,197.672,89.151,201.495,93.87,201.495z"
   id="path1705" />
		</g>
	</g>
</g>
<g
   id="g1713">
</g>
<g
   id="g1715">
</g>
<g
   id="g1717">
</g>
<g
   id="g1719">
</g>
<g
   id="g1721">
</g>
<g
   id="g1723">
</g>
<g
   id="g1725">
</g>
<g
   id="g1727">
</g>
<g
   id="g1729">
</g>
<g
   id="g1731">
</g>
<g
   id="g1733">
</g>
<g
   id="g1735">
</g>
<g
   id="g1737">
</g>
<g
   id="g1739">
</g>
<g
   id="g1741">
</g>
</svg>
