<?xml version="1.0" encoding="UTF-8" standalone="no"?>
<!-- Generator: Adobe Illustrator 19.0.0, SVG Export Plug-In . SVG Version: 6.00 Build 0)  -->

<svg
   version="1.1"
   id="Layer_1"
   x="0px"
   y="0px"
   viewBox="0 0 512 512"
   style="enable-background:new 0 0 512 512;"
   xml:space="preserve"
   sodipodi:docname="water_tank.svg"
   inkscape:version="1.2.1 (9c6d41e410, 2022-07-14)"
   xmlns:inkscape="http://www.inkscape.org/namespaces/inkscape"
   xmlns:sodipodi="http://sodipodi.sourceforge.net/DTD/sodipodi-0.dtd"
   xmlns="http://www.w3.org/2000/svg"
   xmlns:svg="http://www.w3.org/2000/svg"><defs
   id="defs93"><clipPath
     clipPathUnits="userSpaceOnUse"
     id="clipPath3414"><g
       id="g3418"><g
         inkscape:label="Clip"
         id="use3416"
         clip-path="url(#clipPath3414)"><path
           d="m 144.03581,486.18632 c -1.1,-1.1 -2,-2.67103 -2,-3.49118 0,-0.82015 2.49935,-13.30765 5.55411,-27.75 3.05476,-14.44235 8.66229,-41.10882 12.46118,-59.25882 3.79888,-18.15 8.52212,-40.65 10.49607,-50 8.71765,-41.2928 18.48864,-88.43188 18.48864,-89.1964 0,-0.45879 -2.3625,-1.6601 -5.25,-2.66958 -2.8875,-1.00948 -8.9625,-3.56091 -13.5,-5.66985 -6.43173,-2.98934 -8.25,-4.28952 -8.25,-5.8993 v -2.06487 h 92.5 c 90.24764,0 92.5,0.0463 92.5,1.90217 0,1.15343 -1.08248,2.31625 -2.75,2.9541 -1.5125,0.57856 -7.7,3.0875 -13.75,5.57544 -9.83654,4.04507 -10.9646,4.76387 -10.66526,6.79591 0.35916,2.43818 0.82817,4.70714 28.12726,136.07283 9.9209,47.74025 18.038,87.87724 18.038,89.1933 0,2.57598 -3.31144,5.50625 -6.22251,5.50625 -2.85835,0 -5.41974,-3.35967 -6.17374,-8.09786 -0.38529,-2.42118 -1.38982,-7.43964 -2.23229,-11.15214 l -1.53177,-6.75 h -95.8028 -95.80281 l -2.32105,11.20402 c -2.38829,11.52854 -4.13575,14.79598 -7.91303,14.79598 -1.1,0 -2.9,-0.9 -4,-2 z m 6.56906,-2.11174 c 0.3779,-0.61146 1.75697,-6.05849 3.06459,-12.1045 1.30761,-6.04602 2.62654,-11.39573 2.93093,-11.88826 0.31731,-0.51341 30.15703,-0.8955 69.93542,-0.8955 51.36624,0 69.56724,-0.29978 70.09549,-1.15451 0.44208,-0.7153 0.27432,-0.88306 -0.44098,-0.44098 -0.63498,0.39244 -1.15451,0.23697 -1.15451,-0.34549 0,-0.58246 0.675,-1.05902 1.5,-1.05902 0.825,0 1.5,0.675 1.5,1.5 0,1.2962 3.65909,1.5 26.93179,1.5 h 26.93179 l 1.66012,7.75 c 3.68443,17.20007 3.86379,17.73392 6.06381,18.04826 1.14812,0.16404 2.58496,-0.30114 3.19296,-1.03374 0.82895,-0.99883 -4.75483,-29.46273 -22.3239,-113.79826 -12.88615,-61.85644 -23.43548,-113.49288 -23.44296,-114.74764 -0.008,-1.28273 0.75244,-2.54819 1.73639,-2.89089 8.00073,-2.78654 21.12458,-8.72165 20.72284,-9.37167 -0.62799,-1.01611 -172.47284,-0.95624 -172.47284,0.0601 0,0.73236 12.73704,6.42987 20.37595,9.11453 2.13177,0.7492 4.05804,1.8367 4.28059,2.41666 0.22255,0.57997 -5.88462,30.95657 -13.57149,67.50357 -7.68688,36.547 -16.93614,80.62409 -20.55393,97.94909 -3.61778,17.325 -7.91729,37.70872 -9.55445,45.29715 -3.03413,14.06349 -3.49389,17.85229 -2.31,19.03618 1.05603,1.05603 4.14815,0.77531 4.90239,-0.44507 z m 21.46005,-30.13826 c 0.016,-0.6875 3.50351,-3.40837 7.75,-6.04637 4.24649,-2.638 11.77089,-7.42886 16.72089,-10.64635 20.77609,-13.5044 54.98388,-35.30573 56.0225,-35.70429 0.6166,-0.23661 13.46378,7.53381 28.5493,17.26759 32.31978,20.85404 42.90603,27.64518 48.6782,31.22734 2.3375,1.45063 4.25,3.20329 4.25,3.8948 0,0.99936 -16.61647,1.25728 -81,1.25728 -64.14886,0 -80.99394,-0.26005 -80.97089,-1.25 z m 156.88756,-1.12833 c -0.4034,-0.36629 -72.19788,-46.51202 -74.61657,-47.95963 -0.70875,-0.42419 -13.49707,7.17278 -31.24274,18.55991 -16.52357,10.60293 -33.73321,21.64055 -38.24365,24.52805 l -8.20079,5.25 h 76.3602 c 41.99812,0 76.17271,-0.17025 75.94355,-0.37833 z m -11.41667,-18.76842 c -17.05,-11.04579 -36.72363,-23.74401 -43.71918,-28.21826 -7.22222,-4.61922 -12.73249,-8.80757 -12.75,-9.69125 -0.0383,-1.93424 63.79668,-42.94374 66.84582,-42.94374 1.16785,0 2.12336,0.41299 2.12336,0.91775 0,0.50477 4.49852,22.21727 9.99672,48.25 9.79033,46.35505 10.77457,51.86489 9.25328,51.80051 -0.4125,-0.0175 -14.7,-9.06921 -31.75,-20.11501 z m 29.5,14.58514 c 0,-0.30889 -4.2288,-20.67139 -9.39734,-45.25 -5.16853,-24.57862 -9.55603,-45.46056 -9.75,-46.40433 -0.27701,-1.34786 -6.89496,2.4734 -30.85266,17.81462 -16.775,10.74181 -31.119,19.88849 -31.87557,20.32596 -0.96845,0.56 1.6952,2.78395 9,7.51436 5.70657,3.69542 24.10057,15.66198 40.87557,26.59235 16.775,10.93036 30.8375,19.89482 31.25,19.92102 0.4125,0.0262 0.75,-0.2051 0.75,-0.51398 z m -189,2.29897 c 0,-0.27269 3.85224,-18.88765 8.56054,-41.36658 4.70829,-22.47893 9.27234,-44.35828 10.14232,-48.62078 1.18334,-5.79778 1.98676,-7.7498 3.18946,-7.74919 0.88423,4.4e-4 12.85768,7.26121 26.60768,16.13503 13.75,8.87383 28.2625,18.16375 32.25,20.64428 3.9875,2.48053 7.24606,5.00727 7.24125,5.61497 -0.005,0.6077 -2.59231,2.75047 -5.75,4.7617 -3.15769,2.01124 -21.94125,14.12545 -41.74125,26.92046 -31.53292,20.37698 -40.5,25.61555 -40.5,23.66011 z m 48.57215,-32.12247 c 19.5567,-12.58681 35.19093,-23.22865 34.74274,-23.64854 -0.44819,-0.41988 -12.51489,-8.27358 -26.81489,-17.45267 -14.3,-9.17908 -27.80966,-17.91798 -30.02146,-19.41977 l -4.02147,-2.73052 -9.38054,45.0683 c -5.15929,24.78757 -9.59896,45.66646 -9.86592,46.39752 -0.26696,0.73107 1.82971,-0.16893 4.65927,-2 2.82956,-1.83106 21.14558,-13.62751 40.70227,-26.21432 z m 115.42785,22.88511 c 0,-0.83333 0.88889,-1.5 2,-1.5 1.11111,0 2,0.66667 2,1.5 0,0.83333 -0.88889,1.5 -2,1.5 -1.11111,0 -2,-0.66667 -2,-1.5 z m -88.60485,-34.21728 c 1.52272,-0.38991 1.62098,-0.65888 0.5,-1.36868 -1.11629,-0.70684 -1.04537,-0.88648 0.35485,-0.89873 0.9625,-0.008 1.75,0.65969 1.75,1.48469 0,0.92326 -0.86511,1.4554 -2.25,1.384 -1.90662,-0.0983 -1.96078,-0.19006 -0.35485,-0.60128 z m -8.03088,-32.16027 c -14.32099,-9.28266 -27.01154,-17.39849 -28.20122,-18.03519 -1.18968,-0.63669 -2.16305,-1.82042 -2.16305,-2.6305 0,-1.28324 7.48895,-1.43965 58.16678,-1.21482 37.69539,0.16724 58.26848,0.61 58.45575,1.25806 0.15894,0.55 -2.95361,3.00407 -6.91678,5.45349 -3.96316,2.44942 -16.80268,10.66192 -28.53227,18.25 -11.72959,7.58808 -22.10154,13.79651 -23.04878,13.79651 -0.94725,0 -13.43944,-7.5949 -27.76043,-16.87755 z m 80.08573,-19.22408 c 0.56232,-0.53176 -20.862,-0.87437 -52.5,-0.83956 -41.71153,0.0459 -53.05398,0.32041 -51.64675,1.25 0.99178,0.65515 13.04912,8.46756 26.79408,17.36091 l 24.99084,16.16971 25.70591,-16.52135 c 14.13826,-9.08674 26.13342,-16.92561 26.65592,-17.41971 z m -113.45,-9.27576 c 0,-0.76589 3.9375,-4.29054 8.75,-7.83256 57.02111,-41.96779 52.89473,-39.09087 54.64405,-38.09784 5.31204,3.01548 61.42061,45.00772 61.20676,45.80779 -0.17361,0.64956 -22.05319,1.09026 -62.43405,1.25757 -52.58358,0.21787 -62.16676,0.0429 -62.16676,-1.13496 z m 118.5,-2.21862 c -1.1,-0.84283 -6.275,-4.64376 -11.5,-8.44651 -5.225,-3.80276 -16.25,-11.90419 -24.5,-18.00319 -8.25,-6.099 -16.1993,-11.96221 -17.66511,-13.02934 l -2.6651,-1.94024 -28.8349,21.13631 c -15.85919,11.62498 -29.02239,21.30342 -29.25156,21.50765 -0.22916,0.20423 25.87084,0.35702 58,0.33953 52.68251,-0.0287 58.22035,-0.18223 56.41667,-1.56421 z m -129.5,-2.1751 c 0,-1.53995 13.86345,-69.50682 16.51756,-80.97889 0.2863,-1.2375 1.17178,-2.25 1.96773,-2.25 0.79596,0 8.54989,5.23793 17.23095,11.63985 8.68107,6.40192 19.25957,14.16442 23.50777,17.25 4.36124,3.16768 7.73533,6.35511 7.75,7.32125 0.0159,1.04861 -4.5233,5.01512 -11.72401,10.24479 -6.4625,4.69353 -16.925,12.36847 -23.25,17.05542 -29.86884,22.1334 -32,23.44657 -32,19.71758 z m 14.5,-10.26347 c 35.13178,-25.67167 49.5036,-36.41179 49.45829,-36.9604 -0.0229,-0.27776 -3.96044,-3.30819 -8.75,-6.7343 -4.78956,-3.4261 -14.78329,-10.70075 -22.20829,-16.16589 -7.425,-5.46513 -13.62735,-9.80961 -13.783,-9.65438 -0.15566,0.15522 -3.86688,17.32987 -8.24716,38.16589 -4.38029,20.83601 -8.20074,38.50981 -8.48989,39.2751 -0.3813,1.00918 -0.17603,1.11531 0.74716,0.38634 0.70009,-0.55281 5.77289,-4.29337 11.27289,-8.31236 z m 117.72682,3.78458 c -25.81795,-19.15973 -43.89022,-32.46699 -48.40426,-35.64177 -2.65241,-1.86548 -4.79818,-4.11548 -4.76839,-5 0.0298,-0.88453 5.92095,-5.88323 13.09144,-11.10823 7.1705,-5.225 17.83362,-12.99282 23.69583,-17.26182 5.86221,-4.269 11.30088,-7.644 12.08595,-7.5 1.03458,0.18977 3.67601,10.9943 9.59852,39.26182 4.49412,21.45 8.50005,40.4625 8.90207,42.25 1.17807,5.23813 -1.8344,4.17749 -14.20116,-5 z m 7.60246,-13.5 c -2.16439,-10.3125 -5.85201,-27.975 -8.19472,-39.25 -2.3427,-11.275 -4.49974,-20.5 -4.79341,-20.5 -0.53465,0 -12.44367,8.60811 -33.65383,24.32575 l -11.31268,8.38318 17.81268,13.15651 c 9.79697,7.23608 23.66268,17.50286 30.81268,22.81508 7.15,5.31221 13.05952,9.69477 13.13226,9.73902 0.0728,0.0443 -1.6386,-8.35704 -3.80298,-18.66954 z m -79.83672,-39.79418 c -6.87091,-5.14521 -13.09952,-9.37763 -13.84135,-9.40537 -0.74183,-0.0277 -2.54183,-1.29303 -4,-2.81174 -1.45817,-1.51872 -4.45121,-4.17991 -6.65121,-5.91376 -2.2,-1.73385 -3.65158,-3.50218 -3.22574,-3.92963 0.42584,-0.42744 4.02584,-0.23943 8,0.41781 25.48298,4.21431 45.62303,3.81803 71.47574,-1.40636 2.45468,-0.49605 3.25,-0.3077 3.25,0.76967 0,1.24598 -35.1574,27.79236 -40.50744,30.58605 -1.71902,0.89764 -3.80229,-0.29581 -14.5,-8.30667 z m 47.50416,-19.25547 c -0.14447,-0.16481 -3.35284,0.28519 -7.1297,1 -8.41832,1.59325 -48.58607,1.62869 -55.86623,0.0493 -2.74957,-0.59651 -5.12845,-0.95532 -5.28641,-0.79736 -0.15796,0.15795 7.40756,5.93419 16.81225,12.83607 l 17.09945,12.54888 17.31667,-12.66862 c 9.52416,-6.96774 17.19845,-12.80346 17.05397,-12.96827 z M 163.60724,234.61489 c -2.02104,-2.02104 -2.02104,-6.8361 0,-8.85714 1.40503,-1.40503 10.99515,-1.57143 90.56574,-1.57143 59.43369,0 89.6368,0.34385 90.92857,1.03518 2.23444,1.19584 2.7288,7.77028 0.73426,9.76482 -0.9155,0.9155 -22.47302,1.2 -90.92857,1.2 -80.2381,0 -89.89478,-0.16621 -91.3,-1.57143 z m 180.81428,-2.67857 c 0.80529,-1.27643 0.80536,-2.22357 2.5e-4,-3.5 -1.03564,-1.64192 -6.55586,-1.76578 -89.38584,-2.00546 -64.39572,-0.18634 -88.64975,0.0497 -89.64108,0.87245 -2.12346,1.76231 -1.60906,2.87225 1.39096,3.00132 l 2.75,0.11832 -3,0.76337 c -2.79012,0.70996 -2.8251,0.77272 -0.5,0.897 1.97807,0.10573 2.18789,0.33094 1.00502,1.07874 -0.94387,0.5967 31.27229,0.86754 87.39082,0.73469 83.43333,-0.19752 88.95353,-0.31778 89.98987,-1.96043 z m -170.92597,-12 c -0.26261,-0.6875 -0.36099,-32.3 -0.21861,-70.25 l 0.25887,-68.999997 82.25,-0.25581 82.25,-0.25581 v 70.505807 70.50581 h -82.03138 c -64.70379,0 -82.13225,-0.26404 -82.50888,-1.25 z m 162.54026,-69.25 V 82.186323 h -80.5 -80.5 v 68.499997 68.5 h 80.5 80.5 z m -133.03517,3.95762 c -1.95235,-2.35244 0.0716,-3.77446 3.51102,-2.4668 1.54084,0.58582 2.55266,1.31401 2.24848,1.61818 -0.30417,0.30417 -1.53416,0.028 -2.73331,-0.61381 -1.96866,-1.05359 -2.11602,-0.96439 -1.51826,0.91898 0.78538,2.47452 0.25373,2.66613 -1.50793,0.54345 z M 163.6908,74.357583 c -2.36213,-2.61012 -2.08915,-6.75375 0.56752,-8.61456 1.97069,-1.38032 12.19932,-1.5567 90.27749,-1.5567 78.07817,0 88.3068,0.17638 90.27749,1.5567 2.74405,1.92201 2.94812,6.47665 0.39377,8.78831 -1.67283,1.5139 -9.41776,1.65499 -90.84501,1.65499 -84.96753,0 -89.09155,-0.0832 -90.67126,-1.82874 z m 178.91373,-1.19739 c 1.88609,-0.71709 2.48498,-1.57539 2.25062,-3.22548 l -0.31934,-2.24839 -89.68092,-0.25533 -89.68092,-0.25534 -0.69163,2.17914 c -1.55236,4.89104 -3.20005,4.80255 89.22369,4.79218 53.7586,-0.006 87.29812,-0.37832 88.8985,-0.98678 z M 163.64629,61.365083 c -1.35347,-2.18995 0.90811,-5.31637 5.25757,-7.2681 5.9179,-2.65554 24.45488,-8.9215 26.2586,-8.87606 0.75534,0.019 -3.57665,1.75718 -9.62665,3.86257 -15.98809,5.56381 -20.50013,7.72467 -20.49926,9.81729 8.6e-4,2.06618 -9.43541,1.93108 107.24926,1.53554 47.66227,-0.16157 73.75,-0.59898 73.75,-1.23658 0,-2.33915 -31.68149,-12.79928 -52.05782,-17.18768 -15.19155,-3.27176 -15.85169,-3.32574 -40.67335,-3.32574 -15.74198,0 -24.20401,-0.32736 -22.5,-0.87043 4.26665,-1.35978 44.67666,-1.13496 53.23117,0.29616 13.5148,2.26095 31.25871,6.84337 45,11.62141 17.41697,6.05611 19.207,6.98487 18.81199,9.76059 l -0.31199,2.19227 -91.68775,0.25522 c -50.42827,0.14038 -91.91906,-0.11903 -92.20177,-0.57646 z m 38.38952,-18.17876 c 1.375,-0.44035 3.4,-0.80064 4.5,-0.80064 1.58367,0 1.47958,0.16667 -0.5,0.80064 -1.375,0.44035 -3.4,0.80064 -4.5,0.80064 -1.58367,0 -1.47958,-0.16667 0.5,-0.80064 z m 7.27083,-1.60417 c 0.33229,-0.33229 1.1948,-0.36781 1.91667,-0.0789 0.79773,0.31922 0.56078,0.55618 -0.60417,0.60416 -1.05416,0.0434 -1.64479,-0.19293 -1.3125,-0.52522 z m 4.8125,-0.75515 c 0.22917,-0.19763 1.76667,-0.6613 3.41667,-1.03038 2.19092,-0.49007 2.59546,-0.3973 1.5,0.34401 -1.35037,0.91381 -5.92015,1.55175 -4.91667,0.68637 z"
           style="fill:#000000"
           id="path3420" /></g></g></clipPath></defs><sodipodi:namedview
   id="namedview91"
   pagecolor="#ffffff"
   bordercolor="#666666"
   borderopacity="1.0"
   inkscape:showpageshadow="2"
   inkscape:pageopacity="0.0"
   inkscape:pagecheckerboard="0"
   inkscape:deskcolor="#d1d1d1"
   showgrid="false"
   inkscape:zoom="2"
   inkscape:cx="224"
   inkscape:cy="419.5"
   inkscape:window-width="1920"
   inkscape:window-height="1027"
   inkscape:window-x="-8"
   inkscape:window-y="-8"
   inkscape:window-maximized="1"
   inkscape:current-layer="layer1" />
<path
   style="fill:#3d9ec9;stroke-width:1"
   d="m 479.79309,439.594 c -44.21822,0 -44.21822,-33.296 -88.43645,-33.296 -44.21823,0 -44.21823,33.296 -88.43645,33.296 -44.21282,0 -44.21282,-33.296 -88.42474,-33.296 -44.21012,0 -44.21012,33.296 -88.42024,33.296 -44.194824,0 -44.194824,-33.296 -88.390543,-33.296 V 335.93 c 44.194819,0 44.194819,33.296 88.390543,33.296 44.21012,0 44.21012,-33.296 88.42024,-33.296 44.21282,0 44.21282,33.296 88.42474,33.296 44.21822,0 44.21822,-33.296 88.43645,-33.296 44.21823,0 44.21823,33.296 88.43645,33.296"
   id="path52" />
<path
   style="fill:#47a7dd;stroke-width:1"
   d="m 479.79309,504.30615 c -44.21822,0 -44.21822,-33.296 -88.43645,-33.296 -44.21823,0 -44.21823,33.296 -88.43645,33.296 -44.21282,0 -44.21282,-33.296 -88.42474,-33.296 -44.21012,0 -44.21012,33.296 -88.42024,33.296 -44.194824,0 -44.194824,-33.296 -88.390543,-33.296 v -70.368 c 44.194819,0 44.194819,33.296 88.390543,33.296 44.21012,0 44.21012,-33.296 88.42024,-33.296 44.21282,0 44.21282,33.296 88.42474,33.296 44.21822,0 44.21822,-33.296 88.43645,-33.296 44.21823,0 44.21823,33.296 88.43645,33.296"
   id="path54" />

<path
   style="fill:#3494bf;stroke-width:1"
   d="m 479.79309,449.226 c -24.77153,0 -37.68797,-9.726 -49.08305,-18.307 -10.68208,-8.043 -19.90671,-14.989 -39.3534,-14.989 -19.44669,0 -28.67221,6.946 -39.3534,14.989 -11.39506,8.581 -24.31151,18.307 -49.08305,18.307 -24.76792,0 -37.68348,-9.726 -49.07855,-18.307 -10.67938,-8.043 -19.90309,-14.989 -39.34799,-14.989 -19.44309,0 -28.66592,6.946 -39.3453,14.989 -11.39417,8.581 -24.30791,18.307 -49.07585,18.307 -24.75982,0 -37.670874,-9.726 -49.060539,-18.308 C 66.337076,422.876 57.118757,415.93 37.683766,415.93 v -19.262 c 24.75983,0 37.670878,9.726 49.062344,18.308 10.674886,8.041 19.8932,14.987 39.3282,14.987 19.44309,0 28.66591,-6.946 39.34529,-14.989 11.39417,-8.581 24.30792,-18.307 49.07585,-18.307 24.76793,0 37.68348,9.726 49.07855,18.307 10.67939,8.043 19.9022,14.989 39.34709,14.989 19.44669,0 28.67222,-6.946 39.35341,-14.989 11.39507,-8.581 24.31151,-18.307 49.08304,-18.307 24.77153,0 37.68799,9.726 49.08305,18.307 10.68209,8.043 19.90671,14.989 39.3534,14.989 v 19.262 h -8.7e-4 z"
   id="path58" />
<g
   id="g60">
</g>
<g
   id="g62">
</g>
<g
   id="g64">
</g>
<g
   id="g66">
</g>
<g
   id="g68">
</g>
<g
   id="g70">
</g>
<g
   id="g72">
</g>
<g
   id="g74">
</g>
<g
   id="g76">
</g>
<g
   id="g78">
</g>
<g
   id="g80">
</g>
<g
   id="g82">
</g>
<g
   id="g84">
</g>
<g
   id="g86">
</g>
<g
   id="g88">
</g>
<g
   inkscape:groupmode="layer"
   id="layer1"
   inkscape:label="Layer 1"><path
     d="M 37.867442,511.75776 C 37.158251,509.90113 3.9952771,427.27179 11.277074,325.04434 L 25.476166,125.70659 c 156.677614,13.0228 309.663434,6.6554 466.239974,1.11834 l 10.5,197.90426 -20,190.40425 H 260.68653 c -174.735608,0 -221.801982,-0.71305 -222.819088,-3.37568 z m 427.447608,-352.50035 -209.39406,2.5 H 53.026986 c -2.063819,118.89556 -5.964335,190.65695 -2.5,309.47494 l 210.394004,-1.5 202.39406,0.5 c 8.76319,-119.83213 2,-190.96868 2,-310.97494 z M 11.389255,118.61553 C 5.0102121,111.56678 5.2474068,90.37671 12.421869,85.351507 17.74381,81.623893 53.366704,84.647568 264.22044,84.647568 c 210.85379,0 235.97669,-4.023675 241.29863,-0.296061 7.41043,5.190483 2.96153,28.490493 -3.93661,34.733253 -4.51756,4.08836 -24.4331,9.46937 -244.33123,9.46937 -229.458785,0 -241.595895,-5.22468 -245.861975,-9.9386 z m 483.164925,-3.2336 c 5.09347,-1.93654 3.3102,-3.77566 4.0779,-8.21057 l -3.36238,-3.57188 -237.18756,-0.18953 -242.687515,-4.189555 0.632221,8.884865 c 0.983594,13.82286 -11.1418857,9.96951 238.452744,9.94151 145.17765,-0.0162 235.75269,-1.02167 240.07459,-2.66484 z M 11.269053,83.528677 C 7.6139447,77.614615 15.721447,56.171572 27.467368,50.900836 49.447818,43.20223 58.645277,38.09457 74.364196,33.211408 78.26971,31.998142 191.21514,11.321572 192.21426,11.101637 193.57789,10.801469 213.83791,22.632529 185.13339,29.319462 159.14715,35.373151 87.287239,50.05526 73.382728,54.861672 30.206141,69.887001 20.521166,69.222503 20.523515,74.87372 c 0.0023,5.579817 -33.980766,1.21497 281.131635,0.146803 128.71423,-0.436332 202.16537,4.382422 202.16537,2.660553 0,-6.316984 -85.55736,-34.565055 -140.58461,-46.416135 -41.0255,-8.835541 -96.30823,-6.481317 -163.34029,-6.481317 -42.51195,0 -5.6635,-13.046483 -1.06175,-14.513068 11.52228,-3.672151 137.95085,-3.902582 161.05271,-0.03778 36.49735,6.105802 79.41564,18.480842 116.52463,31.384163 47.03535,16.354809 33.36941,29.362968 32.30267,36.858931 l -0.84254,5.920327 -247.60709,0.689237 C 124.08034,85.464537 12.032525,84.763985 11.269053,83.528677 Z M 144.81655,22.906398 c -128.070777,-48.981467 -64.035388,-24.4907334 0,0 z M 205.45816,8.959689 c -164.078071,-47.021229 -82.03904,-23.510614 0,0 z"
     style="fill:#000000;stroke-width:0.999999"
     id="path3433"
     sodipodi:nodetypes="ssccccssccccccccssssscsscccscsscssscssssssssscsscccc" /></g></svg>
