<?xml version="1.0" encoding="UTF-8" standalone="no"?>
<svg
   xmlns:dc="http://purl.org/dc/elements/1.1/"
   xmlns:cc="http://creativecommons.org/ns#"
   xmlns:rdf="http://www.w3.org/1999/02/22-rdf-syntax-ns#"
   xmlns:svg="http://www.w3.org/2000/svg"
   xmlns="http://www.w3.org/2000/svg"
   xmlns:sodipodi="http://sodipodi.sourceforge.net/DTD/sodipodi-0.dtd"
   xmlns:inkscape="http://www.inkscape.org/namespaces/inkscape"
   viewBox="0 0 32 32"
   version="1.1"
   id="svg873"
   sodipodi:docname="lit_osm_good.svg"
   width="32"
   height="32"
   inkscape:version="1.0.1 (3bc2e813f5, 2020-09-07)">
  <metadata
     id="metadata879">
    <rdf:RDF>
      <cc:Work
         rdf:about="">
        <dc:format>image/svg+xml</dc:format>
        <dc:type
           rdf:resource="http://purl.org/dc/dcmitype/StillImage" />
        <dc:title></dc:title>
      </cc:Work>
    </rdf:RDF>
  </metadata>
  <defs
     id="defs877" />
  <sodipodi:namedview
     pagecolor="#ffffff"
     bordercolor="#666666"
     borderopacity="1"
     objecttolerance="10"
     gridtolerance="10"
     guidetolerance="10"
     inkscape:pageopacity="0"
     inkscape:pageshadow="2"
     inkscape:window-width="1920"
     inkscape:window-height="1027"
     id="namedview875"
     showgrid="false"
     inkscape:zoom="18.189022"
     inkscape:cx="12.716055"
     inkscape:cy="19.625772"
     inkscape:window-x="-8"
     inkscape:window-y="-8"
     inkscape:window-maximized="1"
     inkscape:current-layer="svg873" />
  <path
     d="m 28.001263,16.566409 c -0.750793,5.26659 -3.547311,9.6935 -12.407843,3.63752"
     fill="#7f7f99"
     id="path857"
     style="stroke-width:1.0015748;stroke-miterlimit:4;stroke-dasharray:none;fill:#b8b8c4;fill-opacity:1" />
  <path
     d="m 4.411104,15.209059 9.30948,-1.97281 c 6.209783,-0.6375 8.226407,-2.50683 14.426792,3.2059 L 6.815405,16.565459 4.41098,15.209079 Z"
     fill="#006699"
     fill-rule="evenodd"
     id="path859"
     style="stroke-width:1" />
  <path
     d="m 15.59342,20.692189 -10.679045,-3.98443 -8.923152,-0.081 c -4.854134,0.83978 -9.420194,3.12009 -13.950734,5.58005 -9.11235,8.17062 -16.6386,19.29594 -18.57088,40.84762 l -0.18494,5.74973 0.51269,0.0352 -0.008,3.56673 -1.97671,0.0211 v 58.590931 h -4.53384 l 0.3276,-62.610481 -0.47072,0.23732 -0.0526,-1.33539 4.77186,0.0519 0.16719,-5.17809 c 0.064,-1.98221 2.04324,-13.28915 5.08093,-20.57029 3.48543,-8.35409 8.52168,-16.27729 14.35599,-20.364 6.81767,-4.8163 9.73684,-4.30277 14.221723,-6.15791 l 8.165865,0.0598 c 1.493581,-0.37388 2.366338,0.49391 3.215906,1.40814 l 21.454037,-0.38148 -0.667304,0.71876 -12.256483,3.79596 z m -1.125606,-8.37545 0.658528,-0.0314 0.03675,-0.72958 0.252575,-0.0198 -0.02893,-0.74987 0.281065,-0.006 -0.0048,0.75108 0.25387,0.0369 -0.04982,0.70227 0.563181,0.0116 0.06881,0.6446 -2.051537,0.26654 0.02032,-0.87623 z"
     fill="#666666"
     fill-rule="evenodd"
     id="path861"
     style="stroke-width:1" />
  <g
     transform="translate(551.85,-226.23)"
     id="g871">
    <path
       d="m 625.1,277.58 c -6.1508,43.146 -29.061,79.413 -101.65,29.8"
       fill="#d0d0d0"
       id="path865" />
    <path
       d="m 431.84,266.46 76.267,-16.162 c 50.873,-5.2227 67.394,-20.537 118.19,26.264 l -174.76,1.0102 -19.698,-11.112 z"
       fill="#006699"
       fill-rule="evenodd"
       id="path867" />
    <path
       d="m 523.45,311.38 -87.487,-32.642 -73.102,-0.66352 c -39.767,6.8798 -77.174,25.561 -114.29,45.714 -74.652,66.937 -136.31,158.08 -152.14,334.64 l -1.5151,47.104 4.2001,0.28867 -0.06239,29.22 -16.194,0.17332 v 480.00003 h -37.143 l 2.6838,-512.93003 -3.8563,1.9442 -0.43118,-10.94 39.093,0.42475 1.3697,-42.421 c 0.52431,-16.239 16.739,-108.87 41.625,-168.52 28.554,-68.44 69.813,-133.35 117.61,-166.83 55.853,-39.457 79.768,-35.25 116.51,-50.448 l 66.898,0.49021 c 12.236,-3.063 19.386,4.0463 26.346,11.536 l 175.76,-3.1252 -5.4668,5.8884 -100.41,31.098 z m -9.2214,-68.615 5.3949,-0.25699 0.3012,-5.977 2.0692,-0.16263 -0.23693,-6.1432 2.3026,-0.0499 -0.0395,6.1532 2.0798,0.30245 -0.40817,5.7533 4.6138,0.0949 0.56372,5.2808 -16.807,2.1836 0.16649,-7.1784 z"
       fill="#666666"
       fill-rule="evenodd"
       id="path869" />
  </g>
  <g
     inkscape:groupmode="layer"
     id="layer1"
     inkscape:label="Layer 1" />
</svg>
