<?xml version="1.0" encoding="UTF-8" standalone="no"?>
<svg
   xmlns:dc="http://purl.org/dc/elements/1.1/"
   xmlns:cc="http://creativecommons.org/ns#"
   xmlns:rdf="http://www.w3.org/1999/02/22-rdf-syntax-ns#"
   xmlns:svg="http://www.w3.org/2000/svg"
   xmlns="http://www.w3.org/2000/svg"
   xmlns:sodipodi="http://sodipodi.sourceforge.net/DTD/sodipodi-0.dtd"
   xmlns:inkscape="http://www.inkscape.org/namespaces/inkscape"
   version="1.1"
   width="600"
   height="600"
   viewBox="0 0 600 600"
   id="svg885"
   sodipodi:docname="general.svg"
   inkscape:version="1.0.1 (3bc2e813f5, 2020-09-07)">
  <metadata
     id="metadata891">
    <rdf:RDF>
      <cc:Work
         rdf:about="">
        <dc:format>image/svg+xml</dc:format>
        <dc:type
           rdf:resource="http://purl.org/dc/dcmitype/StillImage" />
        <dc:title></dc:title>
      </cc:Work>
    </rdf:RDF>
  </metadata>
  <defs
     id="defs889" />
  <sodipodi:namedview
     pagecolor="#ffffff"
     bordercolor="#666666"
     borderopacity="1"
     objecttolerance="10"
     gridtolerance="10"
     guidetolerance="10"
     inkscape:pageopacity="0"
     inkscape:pageshadow="2"
     inkscape:window-width="1920"
     inkscape:window-height="1027"
     id="namedview887"
     showgrid="false"
     inkscape:zoom="0.81454918"
     inkscape:cx="277.90189"
     inkscape:cy="488"
     inkscape:window-x="-8"
     inkscape:window-y="-8"
     inkscape:window-maximized="1"
     inkscape:current-layer="svg885" />
  <g
     id="layer1" />
  <g
     id="layer2"
     transform="matrix(1.949398,0,0,1.949398,-284.81941,-653.59568)">
    <g
       style="fill:#ffd544;fill-opacity:1;stroke-linejoin:miter"
       id="g866">
      <path
         d="M 300.3963,337.99976 Q 237.97089,338.97485 194.30621,381.54785 151.01447,425.71582 150,487.5205 q 0.66626,61.8318 43.58942,106.2161 44.60943,43.4143 105.81186,44.2639 62.42788,-0.8887 106.15752,-43.4126 43.35377,-44.1228 44.4412,-105.928 -0.59433,-61.8308 -43.45428,-106.26 -44.54197,-43.46313 -105.74317,-44.39868"
         id="path864" />
    </g>
    <g
       style="fill:#b55e28;fill-opacity:1;stroke-linejoin:miter"
       id="g870">
      <path
         d="m 300.37885,345.4414 q -59.36689,0.9331 -100.86329,41.42115 -41.12896,41.99219 -42.07434,100.73169 0.6529,58.76296 41.47144,100.94116 42.42877,41.2583 100.63944,42.0237 59.3678,-0.9038 100.8864,-41.3748 41.1502,-41.97727 42.12055,-100.71604 Q 441.93073,429.70532 401.1339,387.51123 358.72815,346.23657 300.518,345.4419"
         id="path868" />
    </g>
    <g
       style="fill:#ffd544;fill-opacity:1;stroke-linejoin:miter"
       id="g874">
      <path
         d="m 300.3276,364.00684 q -51.60195,0.80566 -87.69601,35.99804 -35.7857,36.5105 -36.62433,87.59888 0.55078,51.11134 36.03186,87.80004 36.8747,35.88746 87.46601,36.5896 51.60415,-0.73486 87.7518,-35.886 Q 423.094,539.6345 423.99295,488.54517 423.50153,437.4353 388.07263,400.70874 351.25357,364.7815 300.6635,364.0083"
         id="path872" />
    </g>
    <g
       style="fill:#b55e28;fill-opacity:1;stroke-linejoin:miter"
       id="g878">
      <path
         d="m 285.73242,407.42126 c -2.57007,1.13086 -4.00934,2.77579 -5.65417,6.68229 l -2.15888,5.14029 h -17.16821 c -16.96263,0 -17.06548,0 -19.73842,2.67294 -2.67279,2.67294 -4.42047,7.81317 -3.28961,9.6636 0.82236,1.23372 127.57947,1.43924 128.40199,0.20562 1.13086,-1.7477 -1.54205,-8.42998 -4.21502,-10.4861 -2.36438,-1.85047 -4.11207,-2.05606 -19.53266,-2.05606 h -16.75702 l -1.02802,-2.87848 c -3.49535,-9.45806 -5.75707,-10.48618 -22.8225,-10.48618 -8.73828,0.10285 -13.6729,0.51404 -16.03748,1.54208 z"
         id="path876" />
    </g>
    <g
       style="fill:#b55e28;fill-opacity:1;stroke-linejoin:miter"
       id="g882">
      <path
         d="m 245.94746,438.77667 c -0.61688,1.02808 1.1308,28.99097 4.11213,64.76703 0.82241,9.8692 1.74758,22.6169 2.05611,28.2712 1.64478,28.0656 3.28962,34.4396 9.76632,39.88816 5.34576,4.5235 9.14954,4.9347 42.45801,4.62614 30.63557,-0.3083 31.14953,-0.3083 34.95324,-2.7756 5.24305,-3.187 8.73835,-8.7384 9.97205,-15.5235 0.51404,-3.0841 1.64478,-15.83186 2.57008,-28.2713 0.82244,-12.43934 2.26165,-31.1498 3.08416,-41.63594 3.08404,-39.9909 3.59808,-48.42093 3.08404,-49.44903 -0.82245,-1.3364 -111.23378,-1.23358 -112.05614,0.10284 z m 28.88787,18.50485 c 0.82237,1.64493 1.74762,18.19651 2.57007,45.74808 1.9533,57.67346 1.85046,60.14075 -0.3084,61.5799 -3.08412,1.85064 -5.34584,-0.5139 -6.1683,-6.16815 -0.30834,-2.77565 -1.13085,-16.85999 -1.74767,-31.25265 -0.6167,-14.3927 -1.64478,-35.5704 -2.36443,-47.0845 -1.33644,-23.5423 -0.8224,-26.31804 4.1121,-25.70115 1.74775,0.20553 3.18696,1.23358 3.90663,2.87847 z m 30.63557,-0.71962 c 1.33635,2.0561 1.4392,9.14965 0.8223,54.58928 -0.61675,48.21528 -0.8223,52.43036 -2.4672,53.45832 -1.33644,0.82257 -2.36445,0.82257 -3.59816,0 -1.74768,-1.02796 -1.9533,-5.24304 -2.67291,-53.2527 -0.82239,-47.08452 -0.71953,-52.3275 0.71961,-54.5893 2.15899,-3.18693 5.24304,-3.28972 7.19636,-0.2056 z m 31.45793,0.10274 c 0.92523,1.74776 1.13074,4.72906 0.61677,10.07498 -0.30836,4.11218 -1.02802,18.60755 -1.64478,32.17774 -1.74774,41.01904 -3.2898,63.63611 -4.31782,64.97274 -0.6168,0.7194 -2.15887,1.3363 -3.4953,1.3363 -1.74773,0 -2.57012,-0.71975 -3.08416,-2.7758 -0.41114,-1.542 -0.20557,-16.4487 0.41126,-33.103 0.71966,-16.75727 1.54205,-39.47693 1.85046,-50.47712 0.7196,-21.48611 1.43934,-24.67308 5.96264,-24.67308 1.4392,0 2.87848,0.92516 3.70093,2.46724 z"
         id="path880" />
    </g>
  </g>
</svg>
