<?xml version="1.0" encoding="UTF-8"?>
<svg width="200" height="200" enable-background="new 0 0 347 348" viewBox="0 0 347 348" xmlns="http://www.w3.org/2000/svg">
 <path d="m347 174c0 96.098-77.679 174-173.5 174s-173.5-77.902-173.5-174 77.679-174 173.5-174 173.5 77.902 173.5 174z" fill="#1789e5"/>
 <path d="m238 53c0 13.807-11.864 25-26.5 25s-26.5-11.193-26.5-25 11.864-25 26.5-25 26.5 11.193 26.5 25z" fill="#fff"/>
 <path d="m66 175c1.055 6.355 19.333 126.42 19.333 126.42h68.333s14.105-122.52 14.333-126.42c6.224-0.622 6.667-13-2-13-12.164 0-89.205-0.059-98 0s-6.832 12.487-1.999 13z" fill="#fff"/>
 <path d="m78 141c17.292-5.325 24.179-23.532 27-31 14.513 6.596 40.333 12.265 59 8 3.683 19.419-28.043 19.31-23 37-8.423-9.295-51.596 12.292-63-14z" fill="#fff"/>
 <path d="m103,82 139-1c-.6,3.421 33.633,57.497 29,67-4.089.418-67,5-67,5 6.109-9.379-13-43-13-43l-88-28z" fill="#fff"/>
 <path d="m270 156-66-3s-23.565 143.36-24 145 1.855 2.536 3 1 51-82 51-82 19.754 80.701 20 82 3.721 1.209 4 0 12-143 12-143z" fill="#fff"/>
</svg>
