<?xml version="1.0" encoding="UTF-8" standalone="no"?>
<svg
   xmlns:dc="http://purl.org/dc/elements/1.1/"
   xmlns:cc="http://creativecommons.org/ns#"
   xmlns:rdf="http://www.w3.org/1999/02/22-rdf-syntax-ns#"
   xmlns:svg="http://www.w3.org/2000/svg"
   xmlns="http://www.w3.org/2000/svg"
   xmlns:sodipodi="http://sodipodi.sourceforge.net/DTD/sodipodi-0.dtd"
   xmlns:inkscape="http://www.inkscape.org/namespaces/inkscape"
   width="200"
   height="200"
   enable-background="new 0 0 347 348"
   viewBox="0 0 347 348"
   version="1.1"
   id="svg865"
   sodipodi:docname="rebuig.svg"
   inkscape:version="1.0.1 (3bc2e813f5, 2020-09-07)">
  <metadata
     id="metadata871">
    <rdf:RDF>
      <cc:Work
         rdf:about="">
        <dc:format>image/svg+xml</dc:format>
        <dc:type
           rdf:resource="http://purl.org/dc/dcmitype/StillImage" />
        <dc:title></dc:title>
      </cc:Work>
    </rdf:RDF>
  </metadata>
  <defs
     id="defs869" />
  <sodipodi:namedview
     pagecolor="#ffffff"
     bordercolor="#666666"
     borderopacity="1"
     objecttolerance="10"
     gridtolerance="10"
     guidetolerance="10"
     inkscape:pageopacity="0"
     inkscape:pageshadow="2"
     inkscape:window-width="1920"
     inkscape:window-height="1027"
     id="namedview867"
     showgrid="false"
     inkscape:zoom="3.975"
     inkscape:cx="100"
     inkscape:cy="100"
     inkscape:window-x="-8"
     inkscape:window-y="-8"
     inkscape:window-maximized="1"
     inkscape:current-layer="svg865" />
  <path
     d="m347 174c0 96.098-77.679 174-173.5 174s-173.5-77.902-173.5-174 77.679-174 173.5-174 173.5 77.902 173.5 174z"
     fill="#1789e5"
     id="path853"
     style="fill:#808080" />
  <path
     d="m238 53c0 13.807-11.864 25-26.5 25s-26.5-11.193-26.5-25 11.864-25 26.5-25 26.5 11.193 26.5 25z"
     fill="#fff"
     id="path855" />
  <path
     d="m66 175c1.055 6.355 19.333 126.42 19.333 126.42h68.333s14.105-122.52 14.333-126.42c6.224-0.622 6.667-13-2-13-12.164 0-89.205-0.059-98 0s-6.832 12.487-1.999 13z"
     fill="#fff"
     id="path857" />
  <path
     d="m103,82 139-1c-.6,3.421 33.633,57.497 29,67-4.089.418-67,5-67,5 6.109-9.379-13-43-13-43l-88-28z"
     fill="#fff"
     id="path861" />
  <path
     d="m270 156-66-3s-23.565 143.36-24 145 1.855 2.536 3 1 51-82 51-82 19.754 80.701 20 82 3.721 1.209 4 0 12-143 12-143z"
     fill="#fff"
     id="path863" />
</svg>
